<svg aria-hidden="true" style="position: absolute; width: 0; height: 0; overflow: hidden;" version="1.1" xmlns="http://www.w3.org/2000/svg" xmlns:xlink="http://www.w3.org/1999/xlink">
<defs>
<symbol id="icon-archive-in" viewBox="0 0 32 32">
<path d="M28.941 7.056l-3.999-3.999c-0.241-0.241-0.573-0.391-0.941-0.391-0.001 0-0.001 0-0.002 0h-16c-0 0-0.001 0-0.001 0-0.368 0-0.701 0.149-0.941 0.391l-3.999 3.999c-0.242 0.241-0.392 0.574-0.392 0.942 0 0.001 0 0.001 0 0.002v-0 17.333c0 1.471 1.196 2.667 2.667 2.667h21.333c1.471 0 2.667-1.196 2.667-2.667v-17.333c0-0.001 0-0.002 0-0.003 0-0.368-0.15-0.701-0.392-0.941l-0-0zM8.552 5.333h14.896l1.333 1.333h-17.563l1.333-1.333zM16 24l-6.667-6.667h4v-4h5.333v4h4l-6.667 6.667z"></path>
</symbol>
<symbol id="icon-archive-out" viewBox="0 0 32 32">
<path d="M28.941 7.056l-3.999-3.999c-0.241-0.241-0.573-0.391-0.941-0.391-0.001 0-0.001 0-0.002 0h-16c-0.001 0-0.001 0-0.002 0-0.368 0-0.7 0.149-0.941 0.391l-3.999 3.999c-0.242 0.24-0.392 0.573-0.392 0.941 0 0.001 0 0.002 0 0.003v-0 17.333c0 1.471 1.196 2.667 2.667 2.667h21.333c1.471 0 2.667-1.196 2.667-2.667v-17.333c0-0.001 0-0.002 0-0.003 0-0.368-0.15-0.701-0.392-0.941l-0-0zM8.552 5.333h14.896l1.333 1.333h-17.563l1.333-1.333zM18.667 18.667v4h-5.333v-4h-4l6.667-6.667 6.667 6.667h-4z"></path>
</symbol>
<symbol id="icon-cart" viewBox="0 0 32 32">
<path d="M6.229 6.933l-0.444-2.667h-1.595c-0.238-0.917-1.066-1.6-2.057-1.6-1.177 0-2.133 0.957-2.133 2.133s0.957 2.133 2.133 2.133c0.991 0 1.819-0.683 2.058-1.6h0.69l0.267 1.6h-0.020l2.758 13.875c-1.315 0.1-2.41 1.113-2.539 2.386-0.008 0.079-0.013 0.172-0.013 0.265 0 1.474 1.193 2.67 2.666 2.674h1.067c0 1.765 1.435 3.2 3.2 3.2s3.2-1.435 3.2-3.2h5.867c0 1.765 1.435 3.2 3.2 3.2s3.2-1.435 3.2-3.2h2.133c0.295 0 0.533-0.239 0.533-0.533s-0.239-0.533-0.533-0.533v0h-2.32c-0.441-1.241-1.623-2.133-3.013-2.133s-2.573 0.892-3.013 2.133h-6.24c-0.441-1.241-1.623-2.133-3.013-2.133s-2.573 0.892-3.013 2.133h-1.253c-0.47-0.002-0.892-0.205-1.185-0.528l-0.001-0.001c-0.257-0.28-0.415-0.656-0.415-1.068 0-0.059 0.003-0.117 0.009-0.174l-0.001 0.007c0.081-0.805 0.825-1.435 1.692-1.435h21.239c1.468-0.002 2.658-1.192 2.66-2.66v-12.274h-25.771zM2.133 5.867c-0.588 0-1.067-0.478-1.067-1.067s0.478-1.067 1.067-1.067 1.067 0.478 1.067 1.067-0.478 1.067-1.067 1.067z"></path>
</symbol>
<symbol id="icon-delete" viewBox="0 0 32 32">
<path d="M23.111 32h-14.222c-1.964 0-3.556-1.592-3.556-3.556v0-16c0-0.982 0.796-1.778 1.778-1.778v0h17.778c0.982 0 1.778 0.796 1.778 1.778v0 16c0 1.964-1.592 3.556-3.556 3.556v0zM28.444 5.333c0 0.982-0.796 1.778-1.778 1.778v0h-21.333c-0.982 0-1.778-0.796-1.778-1.778s0.796-1.778 1.778-1.778v0h5.333v-1.778c0-0.982 0.796-1.778 1.778-1.778v0h7.111c0.982 0 1.778 0.796 1.778 1.778v0 1.778h5.333c0.982 0 1.778 0.796 1.778 1.778v0z"></path>
</symbol>
<symbol id="icon-edit" viewBox="0 0 32 32">
<path d="M2.797 23.923l19.81-19.811 5.281 5.281-19.811 19.81-5.28-5.28zM30.152 7.129l0.754-0.754c0.705-0.705 1.094-1.643 1.094-2.64s-0.388-1.935-1.094-2.64-1.643-1.095-2.641-1.095-1.935 0.389-2.641 1.094l-0.754 0.754 5.281 5.281zM2.187 24.821l-2.159 6.477c-0.017 0.050-0.028 0.109-0.028 0.169 0 0.294 0.239 0.533 0.533 0.533 0.061 0 0.119-0.010 0.173-0.029l-0.004 0.001 6.477-2.159-4.992-4.993zM23.362 3.358l0.755-0.755 5.281 5.281-0.755 0.755-5.281-5.281z"></path>
</symbol>
<symbol id="icon-light" viewBox="0 0 32 32">
<path d="M27.23 11.246c0-6.397-5.376-11.571-11.839-11.23-5.854 0.34-10.485 5.174-10.622 11.028 0 2.924 1.086 5.645 2.996 7.757 3.12 3.342 2.721 7.214 2.721 7.214 0 0.746 0.615 1.36 1.36 1.36h8.3c0.746 0 1.36-0.615 1.426-1.36 0 0-0.458-3.774 2.656-7.142 1.91-2.047 3.002-4.768 3.002-7.627zM18.858 24.72h-5.717c-0.137-2.793-1.36-5.514-3.336-7.62-1.498-1.635-2.243-3.741-2.243-5.919 0.065-4.493 3.539-8.163 8.032-8.438 4.899-0.275 8.98 3.676 8.98 8.503 0 2.113-0.818 4.219-2.315 5.782-2.041 2.178-3.264 4.899-3.401 7.692zM18.381 29.279h-4.834c-0.746 0-1.36 0.615-1.36 1.36s0.615 1.36 1.36 1.36h4.834c0.746 0 1.36-0.615 1.36-1.36s-0.608-1.36-1.36-1.36z"></path>
</symbol>
<symbol id="icon-quote" viewBox="0 0 32 32">
<path d="M27.079 23.611c2.516-2.731 2.263-6.237 2.255-6.277v-10.667c0-0.736-0.597-1.333-1.333-1.333v0h-8c-1.471 0-2.667 1.196-2.667 2.667v9.333c0 0.736 0.597 1.333 1.333 1.333v0h4.104c-0.030 0.693-0.239 1.331-0.581 1.877l0.009-0.016c-0.677 1.068-1.953 1.797-3.795 2.165l-1.071 0.213v3.76h1.333c3.711 0 6.541-1.028 8.412-3.056zM12.403 23.611c2.517-2.731 2.263-6.237 2.255-6.277v-10.667c0-0.736-0.597-1.333-1.333-1.333v0h-8c-1.471 0-2.667 1.196-2.667 2.667v9.333c0 0.736 0.597 1.333 1.333 1.333v0h4.104c-0.030 0.693-0.239 1.331-0.581 1.877l0.009-0.016c-0.677 1.068-1.953 1.797-3.795 2.165l-1.071 0.213v3.76h1.333c3.711 0 6.541-1.028 8.412-3.056z"></path>
</symbol>
<symbol id="icon-thinking" viewBox="0 0 32 32">
<path d="M13.87 10.133c1.536 0 2.786 1.25 2.786 2.786s-1.25 2.786-2.786 2.786-2.786-1.25-2.786-2.786 1.25-2.786 2.786-2.786z"></path>
<path d="M3.539 26.273c0.123 1.457 1.437 2.076 3.625 1.725 2.085-0.335 3.132 0.62 3.4 1.77 0 0 0.078 0.616 0.125 1.315 0.035 0.515 0.462 0.916 0.978 0.916h12.836c0.542 0 0.981-0.439 0.981-0.981v-3.549c0-1.748 0.174-4.343 1.427-5.723 3.474-3.824 5.386-8.838 3.446-13.889-2.256-5.875-8.556-8.502-14.537-7.724-2.17 0.282-4.284 1.028-6.109 2.244-3.33 2.218-5.707 5.922-6.055 9.937-0.102 1.178 0.457 2.604 0.176 3.725-0.057 0.227-0.365 1.285-2.671 3.558-0.552 0.544-0.285 1.483 0.47 1.655 1.027 0.234 1.734 0.374 1.841 0.435 0 0 0.026 4.105 0.067 4.585zM19.306 9.405l0.158-0.384c-0.122-0.213-0.227-0.459-0.303-0.718l-0.006-0.024-0.382-0.159c-0.13-0.055-0.22-0.182-0.22-0.33 0-0 0-0 0-0v0-0.878c0-0.148 0.090-0.275 0.218-0.329l0.002-0.001 0.382-0.159c0.074-0.261 0.178-0.51 0.309-0.742l-0.158-0.384c-0.017-0.040-0.027-0.087-0.027-0.136 0-0.099 0.040-0.188 0.105-0.253l0.621-0.621c0.065-0.065 0.154-0.105 0.253-0.105 0.049 0 0.096 0.010 0.139 0.028l-0.002-0.001 0.384 0.158c0.213-0.122 0.459-0.227 0.718-0.303l0.024-0.006 0.159-0.382c0.055-0.13 0.182-0.22 0.33-0.22 0 0 0 0 0 0h0.878c0.148 0 0.275 0.090 0.329 0.218l0.001 0.002 0.159 0.382c0.261 0.074 0.51 0.178 0.742 0.309l0.384-0.158c0.040-0.017 0.087-0.027 0.136-0.027 0.099 0 0.188 0.040 0.253 0.105l0.621 0.621c0.065 0.065 0.105 0.154 0.105 0.253 0 0.049-0.010 0.096-0.028 0.139l0.001-0.002-0.158 0.384c0.122 0.213 0.227 0.459 0.303 0.718l0.006 0.024 0.382 0.159c0.13 0.055 0.22 0.182 0.22 0.33 0 0 0 0 0 0v0 0.878c-0 0.148-0.090 0.275-0.218 0.329l-0.002 0.001-0.382 0.159c-0.081 0.283-0.186 0.529-0.317 0.759l0.009-0.017 0.158 0.384c0.017 0.040 0.027 0.087 0.027 0.136 0 0.099-0.040 0.188-0.105 0.253l-0.621 0.621c-0.065 0.065-0.154 0.105-0.253 0.105-0.049 0-0.096-0.010-0.139-0.028l0.002 0.001-0.384-0.158c-0.213 0.122-0.459 0.227-0.718 0.303l-0.024 0.006-0.159 0.382c-0.055 0.13-0.182 0.22-0.33 0.22 0 0-0 0-0 0h-0.878c-0.148 0-0.275-0.090-0.329-0.218l-0.001-0.002-0.159-0.382c-0.283-0.081-0.529-0.186-0.759-0.317l0.017 0.009-0.384 0.158c-0.040 0.017-0.087 0.027-0.136 0.027-0.099 0-0.188-0.040-0.253-0.105l-0.621-0.621c-0.065-0.065-0.105-0.154-0.105-0.253 0-0.049 0.010-0.096 0.028-0.139l-0.001 0.002zM8.53 12.317c0 0 0 0 0-0 0-0.203 0.123-0.377 0.299-0.451l0.003-0.001 0.523-0.218c0.111-0.388 0.255-0.726 0.435-1.041l-0.012 0.023-0.217-0.526c-0.023-0.055-0.037-0.119-0.037-0.187 0-0.135 0.055-0.258 0.144-0.347l0.852-0.852c0.089-0.089 0.211-0.144 0.347-0.144 0.067 0 0.132 0.014 0.19 0.038l-0.003-0.001 0.526 0.217c0.292-0.168 0.63-0.312 0.985-0.415l0.033-0.008 0.218-0.524c0.076-0.179 0.25-0.302 0.453-0.302 0 0 0 0 0 0h1.204c0 0 0 0 0 0 0.203 0 0.377 0.123 0.451 0.299l0.001 0.003 0.218 0.523c0.388 0.111 0.726 0.255 1.041 0.435l-0.023-0.012 0.526-0.217c0.055-0.023 0.119-0.037 0.187-0.037 0.135 0 0.258 0.055 0.347 0.144l0.852 0.852c0.089 0.089 0.144 0.211 0.144 0.347 0 0.067-0.014 0.132-0.038 0.19l0.001-0.003-0.217 0.526c0.168 0.292 0.312 0.63 0.415 0.985l0.008 0.033 0.523 0.218c0.179 0.076 0.302 0.25 0.302 0.453 0 0 0 0 0 0v0 1.204c0 0 0 0 0 0 0 0.203-0.123 0.377-0.299 0.451l-0.003 0.001-0.523 0.218c-0.111 0.388-0.255 0.726-0.435 1.041l0.012-0.023 0.217 0.526c0.023 0.055 0.037 0.119 0.037 0.187 0 0.135-0.055 0.258-0.144 0.347l-0.852 0.852c-0.089 0.089-0.211 0.144-0.347 0.144-0.067 0-0.132-0.014-0.19-0.038l0.003 0.001-0.526-0.217c-0.292 0.168-0.63 0.312-0.985 0.415l-0.033 0.008-0.218 0.523c-0.076 0.179-0.25 0.302-0.453 0.302-0 0-0 0-0 0h-1.204c0 0 0 0-0 0-0.203 0-0.377-0.123-0.451-0.299l-0.001-0.003-0.218-0.523c-0.388-0.111-0.726-0.255-1.041-0.435l0.023 0.012-0.526 0.217c-0.055 0.023-0.119 0.037-0.187 0.037-0.135 0-0.258-0.055-0.347-0.144l-0.852-0.852c-0.089-0.089-0.144-0.211-0.144-0.347 0-0.067 0.014-0.132 0.038-0.19l-0.001 0.003 0.217-0.526c-0.168-0.292-0.312-0.63-0.415-0.985l-0.008-0.033-0.523-0.218c-0.179-0.076-0.302-0.25-0.302-0.453 0 0 0 0 0-0v0-0.602l-0-0.602z"></path>
<path d="M22.449 5.318c1.121 0 2.032 0.912 2.032 2.032s-0.912 2.032-2.032 2.032-2.032-0.912-2.032-2.032c0-1.121 0.912-2.032 2.032-2.032z"></path>
</symbol>
</defs>
</svg>
